<mxfile host="app.diagrams.net" modified="2024-01-18T19:54:51.884Z" agent="Mozilla/5.0 (Macintosh; Intel Mac OS X 10_15_7) AppleWebKit/605.1.15 (KHTML, like Gecko) Version/16.6 Safari/605.1.15" etag="vOPCfpaPjz9M0mP6yGwk" version="22.1.21" type="github">
  <diagram name="StrÃ¡nka-1" id="qHNlvLQnSKEmM8BU2uu_">
    <mxGraphModel dx="795" dy="539" grid="1" gridSize="10" guides="1" tooltips="1" connect="1" arrows="1" fold="1" page="1" pageScale="1" pageWidth="827" pageHeight="1169" math="0" shadow="0">
      <root>
        <mxCell id="0" />
        <mxCell id="1" parent="0" />
        <mxCell id="qgC3pcYMYkXA0LMqmIol-1" value="" style="pointerEvents=1;verticalLabelPosition=bottom;shadow=0;dashed=0;align=center;html=1;verticalAlign=top;shape=mxgraph.electrical.electro-mechanical.circuitBreaker2;elSwitchState=off;" vertex="1" parent="1">
          <mxGeometry x="310" y="70" width="75" height="20" as="geometry" />
        </mxCell>
        <mxCell id="qgC3pcYMYkXA0LMqmIol-2" value="" style="html=1;shape=mxgraph.electrical.electro-mechanical.twoWaySwitch;aspect=fixed;elSwitchState=2;" vertex="1" parent="1">
          <mxGeometry x="320" y="200" width="75" height="26" as="geometry" />
        </mxCell>
        <mxCell id="qgC3pcYMYkXA0LMqmIol-3" value="" style="html=1;shape=mxgraph.electrical.electro-mechanical.fuse2;aspect=fixed;elSwitchState=off;" vertex="1" parent="1">
          <mxGeometry x="190" y="60" width="75" height="20" as="geometry" />
        </mxCell>
        <mxCell id="qgC3pcYMYkXA0LMqmIol-18" style="edgeStyle=orthogonalEdgeStyle;rounded=0;orthogonalLoop=1;jettySize=auto;html=1;exitX=0.25;exitY=1;exitDx=0;exitDy=0;endArrow=none;endFill=0;" edge="1" parent="1" source="qgC3pcYMYkXA0LMqmIol-4">
          <mxGeometry relative="1" as="geometry">
            <mxPoint x="92.34482758620697" y="420.0000000000001" as="targetPoint" />
          </mxGeometry>
        </mxCell>
        <mxCell id="qgC3pcYMYkXA0LMqmIol-21" style="edgeStyle=orthogonalEdgeStyle;rounded=0;orthogonalLoop=1;jettySize=auto;html=1;exitX=0.75;exitY=0;exitDx=0;exitDy=0;entryX=0.25;entryY=0;entryDx=0;entryDy=0;endArrow=none;endFill=0;" edge="1" parent="1" source="qgC3pcYMYkXA0LMqmIol-4" target="qgC3pcYMYkXA0LMqmIol-17">
          <mxGeometry relative="1" as="geometry">
            <Array as="points">
              <mxPoint x="118" y="310" />
              <mxPoint x="145" y="310" />
            </Array>
          </mxGeometry>
        </mxCell>
        <mxCell id="qgC3pcYMYkXA0LMqmIol-4" value="" style="rounded=0;whiteSpace=wrap;html=1;fillColor=none;" vertex="1" parent="1">
          <mxGeometry x="80" y="320" width="50" height="10" as="geometry" />
        </mxCell>
        <mxCell id="qgC3pcYMYkXA0LMqmIol-6" value="" style="rounded=0;whiteSpace=wrap;html=1;fillColor=none;" vertex="1" parent="1">
          <mxGeometry x="80" y="200" width="80" height="10" as="geometry" />
        </mxCell>
        <mxCell id="qgC3pcYMYkXA0LMqmIol-7" value="" style="html=1;shape=mxgraph.electrical.electro-mechanical.twoWaySwitch;aspect=fixed;elSwitchState=2;" vertex="1" parent="1">
          <mxGeometry x="320" y="280" width="75" height="26" as="geometry" />
        </mxCell>
        <mxCell id="qgC3pcYMYkXA0LMqmIol-8" value="" style="html=1;shape=mxgraph.electrical.electro-mechanical.twoWaySwitch;aspect=fixed;elSwitchState=2;" vertex="1" parent="1">
          <mxGeometry x="320" y="240" width="75" height="26" as="geometry" />
        </mxCell>
        <mxCell id="qgC3pcYMYkXA0LMqmIol-9" value="" style="html=1;shape=mxgraph.electrical.electro-mechanical.twoWaySwitch;aspect=fixed;elSwitchState=2;" vertex="1" parent="1">
          <mxGeometry x="320" y="320" width="75" height="26" as="geometry" />
        </mxCell>
        <mxCell id="qgC3pcYMYkXA0LMqmIol-10" value="" style="rounded=0;whiteSpace=wrap;html=1;fillColor=none;points=[[0,0,0,0,0],[0,0.25,0,0,0],[0,0.5,0,0,0],[0,0.75,0,0,0],[0,1,0,0,0]];" vertex="1" parent="1">
          <mxGeometry x="520" y="150" width="10" height="80" as="geometry" />
        </mxCell>
        <mxCell id="qgC3pcYMYkXA0LMqmIol-12" value="" style="rounded=0;whiteSpace=wrap;html=1;fillColor=none;points=[[0,0,0,0,0],[0,0.25,0,0,0],[0,0.5,0,0,0],[0,0.75,0,0,0],[0,1,0,0,0]];" vertex="1" parent="1">
          <mxGeometry x="297.5" y="474" width="10" height="80" as="geometry" />
        </mxCell>
        <mxCell id="qgC3pcYMYkXA0LMqmIol-13" value="GRID" style="text;html=1;strokeColor=none;fillColor=none;align=center;verticalAlign=middle;whiteSpace=wrap;rounded=0;" vertex="1" parent="1">
          <mxGeometry x="560" y="175" width="60" height="30" as="geometry" />
        </mxCell>
        <mxCell id="qgC3pcYMYkXA0LMqmIol-14" value="EPS" style="text;html=1;strokeColor=none;fillColor=none;align=center;verticalAlign=middle;whiteSpace=wrap;rounded=0;" vertex="1" parent="1">
          <mxGeometry x="337.5" y="499" width="60" height="30" as="geometry" />
        </mxCell>
        <mxCell id="qgC3pcYMYkXA0LMqmIol-15" value="&lt;font style=&quot;font-size: 13px;&quot;&gt;L1&lt;br&gt;L2&lt;br&gt;L3&lt;br&gt;N&lt;br&gt;PE&lt;/font&gt;" style="text;html=1;strokeColor=none;fillColor=none;align=left;verticalAlign=middle;whiteSpace=wrap;rounded=0;" vertex="1" parent="1">
          <mxGeometry x="540" y="140" width="20" height="100" as="geometry" />
        </mxCell>
        <mxCell id="qgC3pcYMYkXA0LMqmIol-16" value="&lt;font style=&quot;font-size: 13px;&quot;&gt;L1&lt;br&gt;L2&lt;br&gt;L3&lt;br&gt;N&lt;br&gt;PE&lt;/font&gt;" style="text;html=1;strokeColor=none;fillColor=none;align=left;verticalAlign=middle;whiteSpace=wrap;rounded=0;" vertex="1" parent="1">
          <mxGeometry x="317.5" y="460" width="20" height="100" as="geometry" />
        </mxCell>
        <mxCell id="qgC3pcYMYkXA0LMqmIol-17" value="" style="rounded=0;whiteSpace=wrap;html=1;fillColor=none;" vertex="1" parent="1">
          <mxGeometry x="140" y="320" width="20" height="10" as="geometry" />
        </mxCell>
        <mxCell id="qgC3pcYMYkXA0LMqmIol-19" style="edgeStyle=orthogonalEdgeStyle;rounded=0;orthogonalLoop=1;jettySize=auto;html=1;exitX=0.25;exitY=0;exitDx=0;exitDy=0;entryX=0.163;entryY=0.986;entryDx=0;entryDy=0;entryPerimeter=0;startArrow=none;startFill=0;dashed=1;dashPattern=12 12;endArrow=none;endFill=0;" edge="1" parent="1" source="qgC3pcYMYkXA0LMqmIol-4" target="qgC3pcYMYkXA0LMqmIol-6">
          <mxGeometry relative="1" as="geometry" />
        </mxCell>
      </root>
    </mxGraphModel>
  </diagram>
</mxfile>
